# xmcd
#
# Track frame offsets: 
#        150
#        92068
#        115644
#        139881
#        170429
#        214057
#        228092
#        247015
#        291388
#        324442
#
# Disc length: 4744 seconds
#
# Revision: 0
# Processed by: cddbd v1.5.2PL0 Copyright (c) Steve Scherf et al.
# Submitted via: ExactAudioCopy v1.0b1
#
DISCID=8c12860a
DTITLE=Sviatoslav Richter - Sviatoslav Richter archives v. 17
DYEAR=1967
DGENRE=Piano
TTITLE0=Fantasy, piano, C Major     Op. 15  D 760   [Franz Schubert]  
TTITLE1=Noveletten (8), piano   No. 1 in F Major  Op. 21   [Robert Sch
TTITLE1=umann]  
TTITLE2=Noveletten (8), piano   No. 2 in D Major  Op. 21   [Robert Sch
TTITLE2=umann]  
TTITLE3=Sonata, piano, no. 07, D Major   Presto  Op. 10  No. 3   [Ludw
TTITLE3=ig van Beethoven]  
TTITLE4=Sonata, piano, no. 07, D Major   Largo e mesto  Op. 10  No. 3 
TTITLE4=[Ludwig van Beethoven]  
TTITLE5=Sonata, piano, no. 07, D Major   Menuetto: Allegro  Op. 10  No
TTITLE5=3   [Ludwig van Beethoven] 
TTITLE6=Sonata, piano, no. 07, D Major   Rondo: Allegro  Op. 10  No. 3
TTITLE6=[Ludwig van Beethoven] 
TTITLE7=Sonata, piano, no. 17, d minor   Largo - Allegro  Op. 31  No. 
TTITLE7=2   [Ludwig van Beethoven] 
TTITLE8=Sonata, piano, no. 17, d minor   Adagio  Op. 31  No. 2   [Ludw
TTITLE8=ig van Beethoven] 
TTITLE9=Sonata, piano, no. 17, d minor   Allegretto  Op. 31  No. 2   [
TTITLE9=Ludwig van Beethoven]  
EXTD=
EXTT0=
EXTT1=
EXTT2=
EXTT3=
EXTT4=
EXTT5=
EXTT6=
EXTT7=
EXTT8=
EXTT9=
PLAYORDER=
